<svg width="26" height="41" viewBox="0 0 26 41" fill="none" xmlns="http://www.w3.org/2000/svg">
<path d="M14.7975 20.3765C18.0157 18.0424 20.6347 14.9788 22.4399 11.4368C24.2451 7.89488 25.1851 3.97546 25.1827 0H15.5672C15.5672 2.04393 15.1646 4.06785 14.3825 5.9562C13.6003 7.84455 12.4538 9.56035 11.0086 11.0056C9.56328 12.4509 7.84748 13.5974 5.95913 14.3795C4.07078 15.1617 2.04686 15.5643 0.00292969 15.5643V25.1857C2.04686 25.1857 4.07078 25.5883 5.95913 26.3705C7.84748 27.1526 9.56328 28.2991 11.0086 29.7444C12.4538 31.1897 13.6003 32.9055 14.3825 34.7938C15.1646 36.6822 15.5672 38.7061 15.5672 40.75H25.1857C25.1872 36.7748 24.2466 32.8558 22.4409 29.3144C20.6352 25.773 18.0158 22.7099 14.7975 20.3765Z" fill="#42538D"/>
<path d="M3.67553 40.7534C5.70547 40.7534 7.35106 39.1078 7.35106 37.0779C7.35106 35.0479 5.70547 33.4023 3.67553 33.4023C1.64559 33.4023 0 35.0479 0 37.0779C0 39.1078 1.64559 40.7534 3.67553 40.7534Z" fill="#F16645"/>
</svg>
