<svg width="101" height="43" viewBox="0 0 101 43" fill="none" xmlns="http://www.w3.org/2000/svg">
<path d="M100.644 17.1958H97.6505L90.8734 6.95531V17.1958H87.8804V2.25195H90.8734L97.6505 12.5138V2.25195H100.644V17.1958Z" fill="white"/>
<path d="M84.9227 2.27344V17.1959H81.9297V2.27344H84.9227Z" fill="white"/>
<path d="M78.9717 17.1958H75.9787L69.2015 6.95531V17.1958H66.2085V2.25195H69.2015L75.9787 12.5138V2.25195H78.9717V17.1958Z" fill="white"/>
<path d="M56.3495 17.3465C54.9527 17.3465 53.67 17.0187 52.5012 16.363C51.3325 15.7074 50.4061 14.8024 49.722 13.6479C49.0379 12.4792 48.6958 11.1608 48.6958 9.69282C48.6958 8.23905 49.0379 6.93494 49.722 5.78048C50.4061 4.61176 51.3325 3.6996 52.5012 3.04398C53.67 2.38836 54.9527 2.06055 56.3495 2.06055C57.7605 2.06055 59.0432 2.38836 60.1977 3.04398C61.3664 3.6996 62.2857 4.61176 62.9555 5.78048C63.6397 6.93494 63.9817 8.23905 63.9817 9.69282C63.9817 11.1608 63.6397 12.4792 62.9555 13.6479C62.2857 14.8024 61.3664 15.7074 60.1977 16.363C59.0289 17.0187 57.7462 17.3465 56.3495 17.3465ZM56.3495 14.6741C57.2474 14.6741 58.0384 14.4746 58.7225 14.0755C59.4066 13.6622 59.9411 13.0778 60.3259 12.3224C60.7108 11.567 60.9032 10.6905 60.9032 9.69282C60.9032 8.69514 60.7108 7.82573 60.3259 7.08459C59.9411 6.3292 59.4066 5.75197 58.7225 5.3529C58.0384 4.95383 57.2474 4.75429 56.3495 4.75429C55.4515 4.75429 54.6534 4.95383 53.955 5.3529C53.2709 5.75197 52.7364 6.3292 52.3516 7.08459C51.9668 7.82573 51.7744 8.69514 51.7744 9.69282C51.7744 10.6905 51.9668 11.567 52.3516 12.3224C52.7364 13.0778 53.2709 13.6622 53.955 14.0755C54.6534 14.4746 55.4515 14.6741 56.3495 14.6741Z" fill="white"/>
<path d="M43.6704 17.1959L38.2401 10.5471V17.1959H35.2471V2.27344H38.2401V8.96504L43.6704 2.27344H47.2834L41.1263 9.67054L47.4544 17.1959H43.6704Z" fill="white"/>
<path d="M94.0883 30.3454V34.0867H99.1123V36.4598H94.0883V40.4149H99.7537V42.8521H91.0952V27.9082H99.7537V30.3454H94.0883Z" fill="white"/>
<path d="M85.0958 42.8502L81.8035 37.0352H80.3925V42.8502H77.3994V27.9277H83.0007C84.1552 27.9277 85.1386 28.1344 85.951 28.5477C86.7634 28.9468 87.3691 29.4955 87.7682 30.1939C88.1815 30.878 88.3882 31.6477 88.3882 32.5028C88.3882 33.4863 88.1031 34.377 87.533 35.1752C86.9629 35.9591 86.1149 36.5007 84.9889 36.8L88.5592 42.8502H85.0958ZM80.3925 34.7904H82.8938C83.7062 34.7904 84.3119 34.598 84.711 34.2131C85.1101 33.8141 85.3096 33.2653 85.3096 32.567C85.3096 31.8828 85.1101 31.3555 84.711 30.9849C84.3119 30.6001 83.7062 30.4077 82.8938 30.4077H80.3925V34.7904Z" fill="white"/>
<path d="M67.5404 43.0008C66.1436 43.0008 64.8609 42.673 63.6922 42.0173C62.5235 41.3617 61.597 40.4567 60.9129 39.3022C60.2288 38.1335 59.8867 36.8151 59.8867 35.3471C59.8867 33.8934 60.2288 32.5892 60.9129 31.4348C61.597 30.2661 62.5235 29.3539 63.6922 28.6983C64.8609 28.0427 66.1436 27.7148 67.5404 27.7148C68.9514 27.7148 70.2341 28.0427 71.3886 28.6983C72.5573 29.3539 73.4766 30.2661 74.1465 31.4348C74.8306 32.5892 75.1726 33.8934 75.1726 35.3471C75.1726 36.8151 74.8306 38.1335 74.1465 39.3022C73.4766 40.4567 72.5573 41.3617 71.3886 42.0173C70.2199 42.673 68.9371 43.0008 67.5404 43.0008ZM67.5404 40.3284C68.4383 40.3284 69.2293 40.1289 69.9134 39.7298C70.5976 39.3165 71.132 38.7321 71.5168 37.9767C71.9017 37.2213 72.0941 36.3448 72.0941 35.3471C72.0941 34.3494 71.9017 33.48 71.5168 32.7389C71.132 31.9835 70.5976 31.4063 69.9134 31.0072C69.2293 30.6081 68.4383 30.4086 67.5404 30.4086C66.6425 30.4086 65.8443 30.6081 65.1459 31.0072C64.4618 31.4063 63.9273 31.9835 63.5425 32.7389C63.1577 33.48 62.9653 34.3494 62.9653 35.3471C62.9653 36.3448 63.1577 37.2213 63.5425 37.9767C63.9273 38.7321 64.4618 39.3165 65.1459 39.7298C65.8443 40.1289 66.6425 40.3284 67.5404 40.3284Z" fill="white"/>
<path d="M58.4299 27.9277V30.3436H54.4534V42.8502H51.4604V30.3436H47.4839V27.9277H58.4299Z" fill="white"/>
<path d="M40.3994 43.0008C39.359 43.0008 38.4183 42.8226 37.5774 42.4663C36.7508 42.11 36.0952 41.5969 35.6106 40.927C35.126 40.2571 34.8766 39.4661 34.8623 38.554H38.0691C38.1119 39.1668 38.3257 39.6514 38.7105 40.0077C39.1096 40.364 39.6512 40.5422 40.3353 40.5422C41.0337 40.5422 41.5824 40.3783 41.9815 40.0505C42.3806 39.7084 42.5801 39.2666 42.5801 38.725C42.5801 38.2832 42.4447 37.9197 42.1739 37.6347C41.9031 37.3496 41.561 37.1287 41.1477 36.9719C40.7486 36.8009 40.1928 36.6156 39.4802 36.4161C38.511 36.131 37.72 35.8531 37.1071 35.5823C36.5085 35.2972 35.9883 34.8768 35.5464 34.3209C35.1189 33.7508 34.9051 32.9954 34.9051 32.0548C34.9051 31.1711 35.126 30.4015 35.5678 29.7458C36.0096 29.0902 36.6296 28.5914 37.4278 28.2493C38.2259 27.893 39.1381 27.7148 40.1643 27.7148C41.7036 27.7148 42.9507 28.0925 43.9056 28.8479C44.8748 29.5891 45.4092 30.6295 45.509 31.9692H42.2167C42.1881 31.4562 41.9672 31.0357 41.5539 30.7079C41.1548 30.3658 40.6204 30.1948 39.9505 30.1948C39.3661 30.1948 38.8958 30.3444 38.5395 30.6438C38.1974 30.9431 38.0264 31.3778 38.0264 31.9479C38.0264 32.3469 38.1547 32.6819 38.4112 32.9527C38.682 33.2092 39.0098 33.423 39.3946 33.594C39.7937 33.7508 40.3496 33.9361 41.0622 34.1499C42.0314 34.4349 42.8224 34.72 43.4352 35.0051C44.0481 35.2901 44.5755 35.7177 45.0173 36.2878C45.4591 36.8579 45.68 37.6062 45.68 38.5326C45.68 39.3307 45.4734 40.0719 45.06 40.756C44.6467 41.4401 44.041 41.9888 43.2428 42.4022C42.4447 42.8012 41.4969 43.0008 40.3994 43.0008Z" fill="white"/>
<path d="M14.7975 20.3765C18.0157 18.0424 20.6347 14.9788 22.4399 11.4368C24.2451 7.89488 25.1851 3.97546 25.1827 0H15.5672C15.5672 2.04393 15.1646 4.06785 14.3825 5.9562C13.6003 7.84455 12.4538 9.56035 11.0086 11.0056C9.56328 12.4509 7.84748 13.5974 5.95913 14.3795C4.07078 15.1617 2.04686 15.5643 0.00292969 15.5643V25.1857C2.04686 25.1857 4.07078 25.5883 5.95913 26.3705C7.84748 27.1526 9.56328 28.2991 11.0086 29.7444C12.4538 31.1897 13.6003 32.9055 14.3825 34.7938C15.1646 36.6822 15.5672 38.7061 15.5672 40.75H25.1857C25.1872 36.7748 24.2466 32.8558 22.4409 29.3144C20.6352 25.773 18.0158 22.7099 14.7975 20.3765Z" fill="#42538D"/>
<path d="M3.67553 40.7534C5.70547 40.7534 7.35106 39.1078 7.35106 37.0779C7.35106 35.0479 5.70547 33.4023 3.67553 33.4023C1.64559 33.4023 0 35.0479 0 37.0779C0 39.1078 1.64559 40.7534 3.67553 40.7534Z" fill="#F16645"/>
</svg>
